<svg display="none" width="0" height="0" xmlns="http://www.w3.org/2000/svg">
  <symbol id="icon-logo_sf" viewBox="0 0 84 44">
    <path d="M6.43815718,3.4 L9.65723577,3.4 L9.65723577,6.8 L6.43815718,6.8 L6.43815718,3.4 L6.43815718,3.4 Z M3.21907859,13.6 L3.21907859,10.2 L6.41646612,10.2 L6.41646612,6.8 L3.21907859,6.8 L3.21907859,-8.32667268e-16 L-4.41441524e-16,-8.32667268e-16 L-4.41441524e-16,17 L9.65723577,17 L9.65723577,13.6 L3.21907859,13.6 L3.21907859,13.6 Z" id="Shape"></path>
  </symbol>
  <symbol id="icon-ok" viewBox="0 0 84 44">
    <path d="M21.9888586,2.32722602 L19.7983876,0 L6.66336504,13.9560362 L2.19047098,9.20328746 L1.77635684e-15,11.5305135 L6.65598357,18.602496 L6.66350564,18.5944291 L6.67081682,18.6023466 L21.9888586,2.32722602 Z" id="Shape"></path>
  </symbol>
  <symbol id="logo" viewBox="0 0 100 100">
    <title>Logo Tot</title>
    <ellipse vector-effect="non-scaling-stroke" stroke-linejoin="bevel" cx="50" cy="50" rx="50" ry="50"/>
    <ellipse vector-effect="non-scaling-stroke" stroke-linecap="round" cx="49.978" cy="49.659" rx="49.978" ry="33.659"/>
    <path vector-effect="non-scaling-stroke" stroke-linecap="round" d="M49.96 0l47.514 34.52-18.15 55.858h-58.73L2.444 34.52z"/>
    <path vector-effect="non-scaling-stroke" stroke-linecap="round" d="M49.96 0l43.266 24.98v49.96L49.96 99.92 6.692 74.94V24.98z"/>
    <path vector-effect="non-scaling-stroke" stroke-linecap="round" d="M49.96 0l35.326 14.633L99.92 49.96 85.285 85.285 49.96 99.92 14.632 85.285 0 49.96l14.633-35.327z"/>
    <path vector-effect="non-scaling-stroke" stroke-linecap="round" stroke-linejoin="round" d="M14.59 14.59H85V85H14.59z"/>
    <path vector-effect="non-scaling-stroke" stroke-linecap="round" stroke-linejoin="round" d="M49.99 0l39.988 79.978H10z"/>
  </symbol>
  <symbol id="hexagon">
    <desc>Hexagono 6 lados</desc>
    <polygon points="60,20 100,40 100,80 60,100 20,80 20,40" />
  </symbol>
  <symbol id="triangle">
    <desc>Triángulo</desc>
    <polygon points="50,0 100,100 0,100" />
  </symbol>
  <symbol id="pentagon" viewbox="0 0 300 300">
    <desc>Pentágono</desc>
    <polygon points="292,190 238,285 131,262 120,154 219,110" />
  </symbol>
  <symbol id="dodecaedro">
    <desc>Dodecaedro</desc>
    <path vector-effect="non-scaling-stroke" d="M50 1l27.032 7.937 18.45 21.292 4.01 27.885-11.705 25.627-23.7 15.232H35.913l-23.7-15.232L.51 58.116 4.517 30.23l18.45-21.293z" />
  </symbol>
  <symbol id="circle">
    <desc>Círculo</desc>
    <circle cx="50" cy="50" r="50" />
  </symbol>
  <symbol id="lines">
    <line vector-effect="non-scaling-stroke" x1="0" y1="0" x2="100" y2="100" />
    <polyline vector-effect="non-scaling-stroke" points="50,60 200,20 110,70 200,100 140,150" />
    <polyline vector-effect="non-scaling-stroke" points="0,5 50,5 50,25 100,25 100,50 150,50 150,75 200,75" />
  </symbol>
  <symbol id="ellipse">
    <ellipse vector-effect="non-scaling-stroke" cx="100" cy="50" rx="100" ry="50" />
  </symbol>
  <symbol id="path">
    <path vector-effect="non-scaling-stroke" d="M5,50 C0,0 100,0 100,50" />
  </symbol>
  <symbol id="octagon">
    <polygon points="34.2,87.4 12.3,65.5 12.3,34.5 34.2,12.6 65.2,12.6 87.1,34.5 87.1,65.5 65.2,87.4" />
  </symbol>
  <symbol id="logo-sf" class="brand__logo" viewBox="0 0 90 180">
    <desc>Logo SF</desc>
    <path d="M0 36 L36 36 L36 72 L0 72 L0 36 Z" class="juguete"/>
    <path d="M36 72 L72 72 L72 108 L36 108 L36 72 Z" class="mano"/>
    <path d="M72 144 C72 144 0 144 0 144 L0 180 L108 180 L108 0 L72 0 C72 0 72 144 72 144 Z" class="cuerpo"/>
  </symbol>
</svg>
