<svg display="none" width="0" height="0" xmlns="http://www.w3.org/2000/svg">
  <symbol id="icon-logo_sf" viewBox="0 0 84 44">
      <path d="M6.43815718,3.4 L9.65723577,3.4 L9.65723577,6.8 L6.43815718,6.8 L6.43815718,3.4 L6.43815718,3.4 Z M3.21907859,13.6 L3.21907859,10.2 L6.41646612,10.2 L6.41646612,6.8 L3.21907859,6.8 L3.21907859,-8.32667268e-16 L-4.41441524e-16,-8.32667268e-16 L-4.41441524e-16,17 L9.65723577,17 L9.65723577,13.6 L3.21907859,13.6 L3.21907859,13.6 Z" id="Shape"></path>
  </symbol>
  <symbol id="icon-ok" viewBox="0 0 84 44">
      <path d="M21.9888586,2.32722602 L19.7983876,0 L6.66336504,13.9560362 L2.19047098,9.20328746 L1.77635684e-15,11.5305135 L6.65598357,18.602496 L6.66350564,18.5944291 L6.67081682,18.6023466 L21.9888586,2.32722602 Z" id="Shape"></path>
  </symbol>
  <symbol id="logo" viewBox="0 0 28 13">
      <path d="M4.375,12.648566 L4.375,6.95964936" id="linea2"></path>
      <path d="M21.875,12.0652326 L21.875,6.37631603" id="linea1"></path>
      <path d="M0.236409505,8.25154622 C0.236409505,8.25154622 4.93388737,8.15027016 5.9313151,8.14388021 C8.80413289,8.12547571 12.817086,7.09541075 13.3636882,6.6792806 C13.9102903,6.26315045 15.9617702,5.31461806 16.0904768,3.26895239 C16.2740765,0.350816904 13.513467,0.361726758 12.6675798,0.423542282 C11.8216926,0.485357805 9.34106095,1.80823831 10.3325195,4.5863444 C11.3239781,7.36445049 27.0206171,6.11165027 27.6909657,6.09327733" id="arriba"></path>
      <!-- <circle id="Oval-1" fill="#EF0101" cx="13" cy="7" r="4"></circle> -->
  </symbol>
</svg>
