<svg display="none" width="0" height="0" xmlns="http://www.w3.org/2000/svg">
  <symbol id="icon-logo_sf" viewBox="0 0 84 44">
    <path d="M6.43815718,3.4 L9.65723577,3.4 L9.65723577,6.8 L6.43815718,6.8 L6.43815718,3.4 L6.43815718,3.4 Z M3.21907859,13.6 L3.21907859,10.2 L6.41646612,10.2 L6.41646612,6.8 L3.21907859,6.8 L3.21907859,-8.32667268e-16 L-4.41441524e-16,-8.32667268e-16 L-4.41441524e-16,17 L9.65723577,17 L9.65723577,13.6 L3.21907859,13.6 L3.21907859,13.6 Z" id="Shape"></path>
  </symbol>
  <symbol id="icon-ok" viewBox="0 0 84 44">
    <path d="M21.9888586,2.32722602 L19.7983876,0 L6.66336504,13.9560362 L2.19047098,9.20328746 L1.77635684e-15,11.5305135 L6.65598357,18.602496 L6.66350564,18.5944291 L6.67081682,18.6023466 L21.9888586,2.32722602 Z" id="Shape"></path>
  </symbol>
  <symbol id="logo" viewBox="0 -5 119 65">
    <title>Logo tot</title>
    <desc>Logotipo proyecto tot</desc>
    <path d="M15.6254809,45.1748401 L15.6254809,24.8566555" class="trazo2"></path>
    <path d="M78.1274044,43.0914427 L78.1274044,22.7732581" class="trazo3"></path>
    <path d="M0.844345646,29.4707149 C0.844345646,29.4707149 17.6215686,29.1090035 21.1839202,29.0861816 C31.4442994,29.0204492 45.776716,25.3415326 47.7289265,23.8553077 C49.681137,22.3690829 57.0080765,18.9813629 57.4677573,11.6751893 C58.1234905,1.25295607 48.2638676,1.29192104 45.2427488,1.51269756 C42.2216301,1.73347408 33.3619587,6.45819272 36.9029912,16.3803055 C40.4440236,26.3024183 96.5051738,21.8279941 98.8993498,21.7623745"></path>
  </symbol>
  <symbol id="hexagon">
    <title>Hexagono</title>
    <desc>6 lados</desc>
    <polygon points="60,20 100,40 100,80 60,100 20,80 20,40" />
  </symbol>
  <symbol id="triangle">
    <title>Triángulo</title>
    <desc>original-file's-desc</desc>
    <polygon points="50,0 100,100 0,100" />
  </symbol>
  <symbol id="square">
    <title>original-file's-title</title>
    <desc>original-file's-desc</desc>
    <rect width="100" height="100" />
  </symbol>
  <symbol id="pentagon" viewBox="100 100 292 292">
    <title>original-file's-title</title>
    <desc>original-file's-desc</desc>
    <polygon points="292,190 238,285 131,262 120,154 219,110" />
  </symbol>
  <symbol id="dodecaedro" viewBox="100 100 300 300">
    <polygon points="292,190 284,238 254,275 210,292 162,284 125,254 108,210 116,162 146,125 191,108 238,116 275,146" />
  </symbol>
  <symbol id="circle">
    <circle cx="50" cy="50" r="50" />
  </symbol>
  <symbol id="lines">
    <line x1="0" y1="0" x2="100" y2="100" />
    <polyline points="50,60 200,20 110,70 200,100 140,150" />
    <polyline points="0,5 50,5 50,25 100,25 100,50 150,50 150,75 200,75" />
  </symbol>
  <symbol id="ellipse">
    <ellipse cx="100" cy="50" rx="100" ry="50" />
  </symbol>
  <symbol id="path">
    <path d="M5,50 C0,0 100,0 100,50" />
  </symbol>
  <symbol id="octagon">
    <polygon points="34.2,87.4 12.3,65.5 12.3,34.5 34.2,12.6 65.2,12.6 87.1,34.5 87.1,65.5 65.2,87.4" />
  </symbol>
    
</svg>
