<svg display="none" width="0" height="0" xmlns="http://www.w3.org/2000/svg">
  <symbol id="icon-logo_sf" viewBox="0 0 84 44">
    <path d="M6.43815718,3.4 L9.65723577,3.4 L9.65723577,6.8 L6.43815718,6.8 L6.43815718,3.4 L6.43815718,3.4 Z M3.21907859,13.6 L3.21907859,10.2 L6.41646612,10.2 L6.41646612,6.8 L3.21907859,6.8 L3.21907859,-8.32667268e-16 L-4.41441524e-16,-8.32667268e-16 L-4.41441524e-16,17 L9.65723577,17 L9.65723577,13.6 L3.21907859,13.6 L3.21907859,13.6 Z" id="Shape"></path>
  </symbol>
  <symbol id="icon-ok" viewBox="0 0 84 44">
    <path d="M21.9888586,2.32722602 L19.7983876,0 L6.66336504,13.9560362 L2.19047098,9.20328746 L1.77635684e-15,11.5305135 L6.65598357,18.602496 L6.66350564,18.5944291 L6.67081682,18.6023466 L21.9888586,2.32722602 Z" id="Shape"></path>
  </symbol>
  <symbol id="logo" viewBox="0 0 50 50">
    <title>Logo Tot</title>
    <g stroke="#000" fill="none" fill-rule="evenodd">
      <path stroke-linejoin="round" d="M19.518 0l16.084 32.17H3.432z"/>
      <path d="M20.04 0l19.062 13.848-7.28 22.407H8.26L.98 13.848z"/>
      <path d="M20.04 0l17.357 10.02v20.042L20.04 40.082 2.686 30.062v-20.04z"/>
      <path d="M20.04 0l14.173 5.87 5.87 14.17-5.87 14.173-14.172 5.87-14.17-5.87L0 20.04 5.87 5.87z"/>
      <path stroke-linejoin="round" d="M5.722 5.782H34.04V34.1H5.722z"/>
      <ellipse cx="20.049" cy="20.369" rx="20.049" ry="13.502"/>
      <ellipse cx="20.049" cy="20.049" rx="20.049" ry="20.049"/>
    </g>
  </symbol>
  <symbol id="hexagon">
    <title>Hexagono</title>
    <desc>6 lados</desc>
    <polygon points="60,20 100,40 100,80 60,100 20,80 20,40" />
  </symbol>
  <symbol id="triangle">
    <title>Triángulo</title>
    <desc>original-file's-desc</desc>
    <polygon points="50,0 100,100 0,100" />
  </symbol>
  <symbol id="square">
    <title>original-file's-title</title>
    <desc>original-file's-desc</desc>
    <rect width="100" height="100" />
  </symbol>
  <symbol id="pentagon" viewBox="100 100 292 292">
    <title>original-file's-title</title>
    <desc>original-file's-desc</desc>
    <polygon points="292,190 238,285 131,262 120,154 219,110" />
  </symbol>
  <symbol id="dodecaedro" viewBox="100 100 300 300">
    <polygon points="292,190 284,238 254,275 210,292 162,284 125,254 108,210 116,162 146,125 191,108 238,116 275,146" />
  </symbol>
  <symbol id="circle">
    <circle cx="50" cy="50" r="50" />
  </symbol>
  <symbol id="lines">
    <line x1="0" y1="0" x2="100" y2="100" />
    <polyline points="50,60 200,20 110,70 200,100 140,150" />
    <polyline points="0,5 50,5 50,25 100,25 100,50 150,50 150,75 200,75" />
  </symbol>
  <symbol id="ellipse">
    <ellipse cx="100" cy="50" rx="100" ry="50" />
  </symbol>
  <symbol id="path">
    <path d="M5,50 C0,0 100,0 100,50" />
  </symbol>
  <symbol id="octagon">
    <polygon points="34.2,87.4 12.3,65.5 12.3,34.5 34.2,12.6 65.2,12.6 87.1,34.5 87.1,65.5 65.2,87.4" />
  </symbol>
  <symbol id="logo-sf" class="brand__logo" viewBox="0 0 90 180">
    <desc>Logo SF</desc>
    <path d="M0 36 L36 36 L36 72 L0 72 L0 36 Z" class="juguete"/>
    <path d="M36 72 L72 72 L72 108 L36 108 L36 72 Z" class="mano"/>
    <path d="M72 144 C72 144 0 144 0 144 L0 180 L108 180 L108 0 L72 0 C72 0 72 144 72 144 Z" class="cuerpo"/>
  </symbol>
</svg>
