<svg xmlns="http://www.w3.org/2000/svg" viewBox="0 0 150 124" version="1.1">
	<title>logo_cara</title><desc>Created with Sketch.</desc>
	<g stroke="none" stroke-width="1" fill="none" fill-rule="evenodd">
		<path d="M69.8 2.1 C93.3455546 3.2 133.9 7.5 144.7 31.6 C155.423555 55.7 142.2 90.3 115.7 107.3 C89.3255546 124.2 54.5 125.4 31.3 117.5 C8.02255465 109.5 -2.5 85.8 3.8 62.1 C10.0065546 38.4 12.6 22.8 33.8 9.2 C33.8175546 9.2 46.3 1 69.8 2.1 Z M91.0105546 55.5 L104.750555 55.5 L104.750555 39.2 L91.0105546 39.2 L91.0105546 55.5 L91.0105546 55.5 Z M68.9675546 84 C68.9675546 84 69.5 89.1 73.8 92.8 C78.0385546 96.5 75.3 102.7 71.3 101.9 C67.2665546 101 65.6 97.9 66.4 93.2 C67.2665546 88.6 69 84 69 84 L68.9675546 84 L68.9675546 84 Z M32.9675546 86.6 C32.9675546 86.6 29.3 72.4 37.8 65.9 C46.2905546 59.4 55.4 60.2 60.7 54.3 C66.1325546 48.3 68.7 39.5 68.7 39.5 M27.5155546 81.1 C27.5155546 81.1 23.8 67 32.3 60.4 C33.9377315 59.2 35.6 58.2 37.2 57.4 C44.1273844 54 50.9 53.6 55.3 48.8 C60.6805546 42.9 63.2 34.1 63.2 34.1" stroke="#000000" stroke-width="3"/>
	</g>
</svg>